<mxfile host="Electron" modified="2023-11-24T20:08:52.459Z" agent="Mozilla/5.0 (Windows NT 10.0; Win64; x64) AppleWebKit/537.36 (KHTML, like Gecko) draw.io/22.0.3 Chrome/114.0.5735.289 Electron/25.8.4 Safari/537.36" etag="U3AldoktK8JOxq40VZ7y" version="22.0.3" type="device">
  <diagram name="Page-1" id="HWraGZDnl1Ku_iL6fcYU">
    <mxGraphModel dx="2552" dy="1212" grid="1" gridSize="10" guides="1" tooltips="1" connect="1" arrows="1" fold="1" page="1" pageScale="1" pageWidth="1100" pageHeight="850" math="0" shadow="0">
      <root>
        <mxCell id="0" />
        <mxCell id="1" parent="0" />
        <mxCell id="nUhA9gQIW-DroY11OrUE-1" value="TITLE" style="rounded=0;whiteSpace=wrap;html=1;" vertex="1" parent="1">
          <mxGeometry x="140" y="80" width="820" height="60" as="geometry" />
        </mxCell>
        <mxCell id="nUhA9gQIW-DroY11OrUE-2" value="Subtitle and brief description" style="rounded=0;whiteSpace=wrap;html=1;" vertex="1" parent="1">
          <mxGeometry x="140" y="160" width="820" height="30" as="geometry" />
        </mxCell>
        <mxCell id="nUhA9gQIW-DroY11OrUE-5" value="Stacked bar chart all years" style="rounded=0;whiteSpace=wrap;html=1;" vertex="1" parent="1">
          <mxGeometry x="140" y="210" width="350" height="210" as="geometry" />
        </mxCell>
        <mxCell id="nUhA9gQIW-DroY11OrUE-6" value="Pie of share of energy generated by energy type" style="ellipse;whiteSpace=wrap;html=1;aspect=fixed;" vertex="1" parent="1">
          <mxGeometry x="590" y="230" width="160" height="160" as="geometry" />
        </mxCell>
        <mxCell id="nUhA9gQIW-DroY11OrUE-7" value="Line plot of energy generated by energy types year 2018&amp;nbsp;" style="rounded=0;whiteSpace=wrap;html=1;" vertex="1" parent="1">
          <mxGeometry x="140" y="450" width="410" height="180" as="geometry" />
        </mxCell>
        <mxCell id="nUhA9gQIW-DroY11OrUE-8" value="Bar plot count renewables energy generated" style="whiteSpace=wrap;html=1;aspect=fixed;" vertex="1" parent="1">
          <mxGeometry x="610" y="475" width="130" height="130" as="geometry" />
        </mxCell>
        <mxCell id="nUhA9gQIW-DroY11OrUE-9" value="Text with Percentage" style="rounded=1;whiteSpace=wrap;html=1;" vertex="1" parent="1">
          <mxGeometry x="800" y="510" width="120" height="60" as="geometry" />
        </mxCell>
        <mxCell id="nUhA9gQIW-DroY11OrUE-10" value="Area plot of Total Load" style="rounded=0;whiteSpace=wrap;html=1;" vertex="1" parent="1">
          <mxGeometry x="140" y="660" width="820" height="230" as="geometry" />
        </mxCell>
        <mxCell id="nUhA9gQIW-DroY11OrUE-11" value="Area plot of total load 7 days" style="rounded=0;whiteSpace=wrap;html=1;" vertex="1" parent="1">
          <mxGeometry x="140" y="910" width="380" height="230" as="geometry" />
        </mxCell>
        <mxCell id="nUhA9gQIW-DroY11OrUE-12" value="Plot total load and energy generated 2018" style="rounded=0;whiteSpace=wrap;html=1;" vertex="1" parent="1">
          <mxGeometry x="560" y="910" width="400" height="230" as="geometry" />
        </mxCell>
      </root>
    </mxGraphModel>
  </diagram>
</mxfile>
